<?xml version="1.0" encoding="UTF-8" standalone="no"?>
<!-- Generator: Adobe Illustrator 15.0.0, SVG Export Plug-In . SVG Version: 6.00 Build 0)  -->

<svg
   xmlns:dc="http://purl.org/dc/elements/1.1/"
   xmlns:cc="http://creativecommons.org/ns#"
   xmlns:rdf="http://www.w3.org/1999/02/22-rdf-syntax-ns#"
   xmlns:svg="http://www.w3.org/2000/svg"
   xmlns="http://www.w3.org/2000/svg"
   xmlns:xlink="http://www.w3.org/1999/xlink"
   xmlns:sodipodi="http://sodipodi.sourceforge.net/DTD/sodipodi-0.dtd"
   xmlns:inkscape="http://www.inkscape.org/namespaces/inkscape"
   version="1.1"
   id="svg4059"
   sodipodi:docname="all tags.svg"
   inkscape:version="0.48.2 r9819"
   x="0px"
   y="0px"
   width="4034.047px"
   height="1508.937px"
   viewBox="0 0 4034.047 1508.937"
   enable-background="new 0 0 4034.047 1508.937"
   xml:space="preserve"><metadata
   id="metadata33"><rdf:RDF><cc:Work
       rdf:about=""><dc:format>image/svg+xml</dc:format><dc:type
         rdf:resource="http://purl.org/dc/dcmitype/StillImage" /><dc:title></dc:title></cc:Work></rdf:RDF></metadata><defs
   id="defs31" />
<sodipodi:namedview
   gridtolerance="10"
   borderopacity="1"
   pagecolor="#ffffff"
   id="namedview4206"
   inkscape:window-width="1280"
   objecttolerance="10"
   bordercolor="#666666"
   guidetolerance="10"
   inkscape:pageopacity="0"
   inkscape:pageshadow="2"
   inkscape:window-height="718"
   showgrid="false"
   inkscape:zoom="0.28482563"
   fit-margin-left="0"
   inkscape:cx="2017.0236"
   inkscape:cy="754.46851"
   inkscape:window-x="0"
   inkscape:window-y="0"
   inkscape:window-maximized="0"
   inkscape:current-layer="svg4059"
   fit-margin-top="0"
   fit-margin-right="0"
   fit-margin-bottom="0">
	</sodipodi:namedview>
<g
   id="Layer_4"
   transform="translate(-1000.217,567.96757)"
   display="none">
	<g
   display="inline"
   id="g5">
		<defs
   id="defs7">
			<rect
   id="SVGID_1_"
   x="-3.259"
   y="-58.09"
   width="879.704"
   height="1172.94" />
		</defs>
		<clipPath
   id="SVGID_2_">
			<use
   xlink:href="#SVGID_1_"
   overflow="visible"
   id="use11" />
		</clipPath>
		<g
   transform="matrix(1 0 0 1 0 3.814697e-06)"
   clip-path="url(#SVGID_2_)"
   enable-background="new    "
   id="g13">
			
				<image
   sodipodi:absref="/Users/gordon/Desktop/E4E5831F.png"
   xlink:href="E4E5831F.png"
   transform="matrix(1.1454 0 0 1.1454 -3.2593 -58.0897)"
   id="image4137"
   height="1024"
   width="768"
   overflow="visible">
			</image>
		</g>
	</g>
</g>
<g
   id="Tag"
   transform="translate(1376.7151,471.95062)"
   inkscape:export-xdpi="22.309999"
   inkscape:export-ydpi="22.309999"
   inkscape:export-filename="/Users/AluAdmin/Desktop/all tags.png">
	<g
   id="g4596">
		<path
   id="path4110"
   inkscape:connector-curvature="0"
   fill="#BE0926"
   stroke="#000000"
   stroke-width="80"
   d="M2205.842,262.518    L2205.842,262.518c0-178.376-144.604-322.979-322.979-322.979c-178.377,0-322.979,144.604-322.979,322.979    c0,178.376,144.603,322.978,322.979,322.978C2061.238,585.496,2205.842,440.895,2205.842,262.518L2205.842,262.518    L2205.842,262.518z" />
		<path
   id="path4112"
   inkscape:connector-curvature="0"
   stroke="#000000"
   stroke-opacity="0"
   d="M1979.535,400.693l-237.564-237.564    l56.568-56.567l237.564,237.563L1979.535,400.693z" />
		<path
   id="path4114"
   inkscape:connector-curvature="0"
   stroke="#000000"
   stroke-opacity="0"
   d="M2038.662,156.053l-237.564,237.564    l-56.567-56.568l237.563-237.564L2038.662,156.053z" />
	</g>
</g>
<g
   id="g4586"
   transform="translate(-758.56514,584.3465)"
   inkscape:export-xdpi="22.309999"
   inkscape:export-ydpi="22.309999"
   inkscape:export-filename="/Users/AluAdmin/Desktop/all tags.png">
	<path
   id="path4142"
   inkscape:connector-curvature="0"
   fill="#7AB031"
   stroke="#000000"
   stroke-width="80"
   d="M2536.68,170.122   L2536.68,170.122c0,178.111-144.388,322.5-322.5,322.5s-322.5-144.389-322.5-322.5c0-178.112,144.388-322.5,322.5-322.5   S2536.68-7.99,2536.68,170.122L2536.68,170.122L2536.68,170.122z" />
	<path
   id="path4144"
   inkscape:connector-curvature="0"
   fill-opacity="0"
   stroke="#000000"
   stroke-width="80"
   d="M2406.196,170.322   L2406.196,170.322c0,105.534-85.553,191.086-191.086,191.086c-105.534,0-191.088-85.553-191.088-191.086   c0-105.534,85.554-191.088,191.088-191.088C2320.644-20.765,2406.196,64.788,2406.196,170.322L2406.196,170.322L2406.196,170.322z" />
	<path
   id="path4146"
   inkscape:connector-curvature="0"
   stroke="#000000"
   stroke-width="80"
   stroke-opacity="0"
   d="M2260.694,172.1   L2260.694,172.1c0,25.131-20.373,45.504-45.504,45.504c-25.133,0-45.506-20.373-45.506-45.504   c0-25.132,20.373-45.505,45.506-45.505C2240.322,126.595,2260.694,146.968,2260.694,172.1L2260.694,172.1z" />
</g>
<g
   id="g4582"
   transform="translate(-814.217,415.0155)"
   inkscape:export-xdpi="22.309999"
   inkscape:export-ydpi="22.309999"
   inkscape:export-filename="/Users/AluAdmin/Desktop/all tags.png">
	<path
   id="path4140"
   inkscape:connector-curvature="0"
   fill="#FFED00"
   stroke="#000000"
   stroke-width="80"
   d="M1680.272,339.453   L1680.272,339.453c0,178.068-144.354,322.421-322.422,322.421c-178.069,0-322.422-144.354-322.422-322.421   c0-178.069,144.353-322.421,322.422-322.422C1535.918,17.031,1680.271,161.384,1680.272,339.453L1680.272,339.453z" />
	<path
   id="path4148"
   inkscape:connector-curvature="0"
   fill-opacity="0"
   stroke="#000000"
   stroke-width="80"
   d="M1193.39,331.612   l82.892,107.856l275.729-200.065" />
</g>
<g
   id="g4591"
   transform="translate(-846.24434,534.38223)"
   inkscape:export-xdpi="22.309999"
   inkscape:export-ydpi="22.309999"
   inkscape:export-filename="/Users/AluAdmin/Desktop/all tags.png">
	<path
   id="path4150"
   inkscape:connector-curvature="0"
   fill="#66B8DC"
   stroke="#000000"
   stroke-width="80"
   d="M3536.34,220.087   L3536.34,220.087c0,178.111-144.388,322.5-322.5,322.5c-178.111,0-322.5-144.389-322.5-322.5c0-178.112,144.389-322.5,322.5-322.5   C3391.953-102.413,3536.34,41.974,3536.34,220.087L3536.34,220.087L3536.34,220.087z" />
	<path
   id="path4152"
   inkscape:connector-curvature="0"
   stroke="#000000"
   stroke-opacity="0"
   d="M3045.566,179.302h335.47v81.028   h-335.47V179.302z" />
</g>
</svg>