<?xml version="1.0" encoding="utf-8"?>
<!-- Generator: Adobe Illustrator 15.0.0, SVG Export Plug-In . SVG Version: 6.00 Build 0)  -->
<!DOCTYPE svg PUBLIC "-//W3C//DTD SVG 1.1//EN" "http://www.w3.org/Graphics/SVG/1.1/DTD/svg11.dtd">
<svg version="1.1"
	 id="svg3010" sodipodi:docname="Neues Dokument 1" inkscape:version="0.48.2 r9819" xmlns:sodipodi="http://sodipodi.sourceforge.net/DTD/sodipodi-0.dtd" xmlns:inkscape="http://www.inkscape.org/namespaces/inkscape" xmlns:rdf="http://www.w3.org/1999/02/22-rdf-syntax-ns#" xmlns:svg="http://www.w3.org/2000/svg" xmlns:cc="http://creativecommons.org/ns#" xmlns:dc="http://purl.org/dc/elements/1.1/"
	 xmlns="http://www.w3.org/2000/svg" xmlns:xlink="http://www.w3.org/1999/xlink" x="0px" y="0px" width="744.094px"
	 height="1052.363px" viewBox="0 0 744.094 1052.363" enable-background="new 0 0 744.094 1052.363" xml:space="preserve">
<sodipodi:namedview  pagecolor="#ffffff" bordercolor="#ffffff" id="base" borderopacity="0.0" inkscape:pageopacity="0.0" inkscape:cy="520" inkscape:pageshadow="0" inkscape:zoom="0.35" inkscape:cx="350" inkscape:document-units="px" inkscape:current-layer="layer1" showgrid="false" inkscape:window-width="1156" inkscape:window-height="745" inkscape:window-x="20" inkscape:window-y="20" inkscape:window-maximized="0">
	</sodipodi:namedview>
<g id="layer1" inkscape:label="Layer 1" inkscape:groupmode="layer">
	<g id="g4596" transform="translate(-1545.7201,349.84468)">
		<path id="path4110" inkscape:connector-curvature="0" fill="#BE0926" stroke="#000000" stroke-width="80" d="M2240.841,245.518
			L2240.841,245.518c0-178.376-144.604-322.979-322.978-322.979c-178.377,0-322.979,144.604-322.979,322.979
			c0,178.375,144.603,322.979,322.979,322.979C2096.238,568.497,2240.841,423.895,2240.841,245.518L2240.841,245.518
			L2240.841,245.518L2240.841,245.518z"/>
		<path id="path4112" inkscape:connector-curvature="0" stroke="#000000" stroke-opacity="0" d="M2014.535,383.694l-237.563-237.565
			l56.567-56.567l237.564,237.564L2014.535,383.694z"/>
		<path id="path4114" inkscape:connector-curvature="0" stroke="#000000" stroke-opacity="0" d="M2073.662,139.053l-237.563,237.565
			l-56.567-56.568l237.562-237.564L2073.662,139.053L2073.662,139.053z"/>
	</g>
</g>
</svg>
