<?xml version="1.0" encoding="utf-8"?>
<!-- Generator: Adobe Illustrator 15.0.0, SVG Export Plug-In . SVG Version: 6.00 Build 0)  -->
<!DOCTYPE svg PUBLIC "-//W3C//DTD SVG 1.1//EN" "http://www.w3.org/Graphics/SVG/1.1/DTD/svg11.dtd">
<svg version="1.1"
	 id="svg3240" sodipodi:docname="Neues Dokument 14" inkscape:version="0.48.2 r9819" xmlns:sodipodi="http://sodipodi.sourceforge.net/DTD/sodipodi-0.dtd" xmlns:inkscape="http://www.inkscape.org/namespaces/inkscape" xmlns:rdf="http://www.w3.org/1999/02/22-rdf-syntax-ns#" xmlns:svg="http://www.w3.org/2000/svg" xmlns:cc="http://creativecommons.org/ns#" xmlns:dc="http://purl.org/dc/elements/1.1/"
	 xmlns="http://www.w3.org/2000/svg" xmlns:xlink="http://www.w3.org/1999/xlink" x="0px" y="0px" width="744.094px"
	 height="1052.363px" viewBox="0 0 744.094 1052.363" enable-background="new 0 0 744.094 1052.363" xml:space="preserve">
<sodipodi:namedview  pagecolor="#ffffff" bordercolor="#ffffff" id="base" borderopacity="0.0" inkscape:pageopacity="0.0" inkscape:cy="520" inkscape:pageshadow="0" inkscape:zoom="0.35" inkscape:cx="350" inkscape:document-units="px" inkscape:current-layer="layer1" showgrid="false" inkscape:window-width="1286" inkscape:window-height="757" inkscape:window-x="1" inkscape:window-y="0" inkscape:window-maximized="0">
	</sodipodi:namedview>
<g id="layer1" inkscape:label="Layer 1" inkscape:groupmode="layer">
	
		<g id="g4586" transform="translate(-1871.3229,362.24018)" inkscape:export-xdpi="22.309999" inkscape:export-ydpi="22.309999" inkscape:export-filename="/Users/AluAdmin/Desktop/all tags.png">
		<path id="path4142" inkscape:connector-curvature="0" fill="#7AB031" stroke="#000000" stroke-width="80" d="M2566.87,176.918
			L2566.87,176.918c0,178.111-144.388,322.5-322.5,322.5c-178.111,0-322.5-144.389-322.5-322.5c0-178.112,144.389-322.5,322.5-322.5
			C2422.482-145.582,2566.87-1.195,2566.87,176.918L2566.87,176.918L2566.87,176.918L2566.87,176.918z"/>
		<path id="path4144" inkscape:connector-curvature="0" fill-opacity="0" stroke="#000000" stroke-width="80" d="M2436.387,177.117
			L2436.387,177.117c0,105.535-85.554,191.086-191.086,191.086c-105.534,0-191.088-85.553-191.088-191.086
			s85.554-191.087,191.088-191.087C2350.834-13.97,2436.387,71.584,2436.387,177.117L2436.387,177.117L2436.387,177.117
			L2436.387,177.117z"/>
		<path id="path4146" inkscape:connector-curvature="0" stroke="#000000" stroke-width="80" stroke-opacity="0" d="
			M2290.885,178.894L2290.885,178.894c0,25.131-20.373,45.504-45.504,45.504c-25.134,0-45.507-20.373-45.507-45.504
			s20.373-45.504,45.507-45.504C2270.513,133.39,2290.885,153.763,2290.885,178.894L2290.885,178.894z"/>
	</g>
</g>
</svg>
